<?xml version="1.0" encoding="utf-8"?>
<!-- Generator: Adobe Illustrator 24.3.0, SVG Export Plug-In . SVG Version: 6.00 Build 0)  -->
<svg version="1.1" id="图层_1" xmlns="http://www.w3.org/2000/svg" xmlns:xlink="http://www.w3.org/1999/xlink" x="0px" y="0px"
	 viewBox="0 0 680.3 490.4" style="enable-background:new 0 0 680.3 490.4;" xml:space="preserve">
<style type="text/css">
	.st0{fill:none;stroke:#FFFFFF;stroke-width:10;stroke-miterlimit:10;}
	.st1{fill:none;stroke:#FFFFFF;stroke-width:12;stroke-miterlimit:10;}
	.st2{fill:none;stroke:#FFFFFF;stroke-width:20;stroke-miterlimit:10;}
	.st3{fill:#FFFFFF;}
	.st4{fill:none;stroke:#FFFFFF;stroke-width:13;stroke-miterlimit:10;}
</style>
<g>
	<g>
		<g>
			<g>
				<path class="st0" d="M374.5,14.2h56.3c6.2,0,6.2,5.7,6.2,5.7l0.8,31.5h6.9l0.9,13.9l-7.2,0.1l0.5,38.9l7.5,0.2l1.5,14.8
					l-8.3,0.2l3,111.1c0.1,3.4-2.7,6.3-6.1,6.3l-229.2-1.2c-2.4,0-4.2-1.9-4.2-4.3l0.5-39.2l2.9-126.8l-6.5-0.1v-8.9l0.5-5.9h7.2
					L207.6,20c0.3-5.1,6.3-6,6.3-6h57.7L374.5,14.2z"/>
			</g>
			<polygon class="st1" points="234.1,35.8 230.2,215.8 414.9,215.8 411.9,35.8 			"/>
		</g>
		<path class="st2" d="M490.5,249l-332.8,0.7l-12.9,5.2l-4.7,92.7l-3.7,6c0,0-0.7-49.9-4.9-66.1c0,0-1.5-8.9-11.2-9.7L80,277.6
			c0,0-10.7,0-13.7,12.4s-8.8,45.2-7.5,83.6c0,0-1.5,40.4,6,92.6c0,0,1.5,13.4,12.4,14.9l42.5,0.2c0,0,10.7,1.5,13.2-21.4l385-0.5
			c0,0,1.7,13.3,4.4,16.5c2.6,3.2,4.6,5,9.1,5.3c4.5,0.4,42.5,0.4,42.5,0.4s9.6-1.9,11.6-14.9c2-13.1,3.9-33.8,3.9-33.8l1.2-21.3
			l0.7-49.1c0,0-2-65.6-9.9-79.5c0,0-3.5-4.2-8.3-5.3l-5.3-0.1l-36.2,0.2c0,0-9.1,0-11.9,8.8s-4.8,52.9-4.8,52.9l-0.7,14.9l-4.2-5.2
			l-4.5-94.1L490.5,249z"/>
		<g>
			<g>
				<g>
					<path class="st0" d="M459,301.6v39.5l-2.1,7.8l6.4-0.2c0,0,3.8,0,3.8,6.7v10.8H271.6h-78.5l-11.5-0.7l-0.9-2.4V353
						c0,0,0.5-3.6,3.2-3.9h7.9c0,0,0.3-5.1-2.9-7.2v-40.3H459z"/>
					<line class="st0" x1="459.5" y1="301.6" x2="188.6" y2="301.6"/>
				</g>
				<path class="st3" d="M459.2,236.9H188c-2.5,0-4.6,2-4.6,4.6v74.8h281.2v-74C464.6,239.2,462.2,236.9,459.2,236.9z"/>
			</g>
			<g>
				<rect x="213.9" y="314" class="st3" width="1.4" height="31.9"/>
				<rect x="221.1" y="314" class="st3" width="1.4" height="31.9"/>
				<rect x="228.2" y="314" class="st3" width="1.4" height="31.9"/>
				<rect x="235.3" y="314" class="st3" width="1.4" height="31.9"/>
				<rect x="242.4" y="314" class="st3" width="1.4" height="31.9"/>
				<rect x="249.6" y="314" class="st3" width="1.4" height="31.9"/>
				<rect x="256.7" y="314" class="st3" width="1.4" height="31.9"/>
				<rect x="263.8" y="314" class="st3" width="1.4" height="31.9"/>
				<rect x="306.6" y="314" class="st3" width="1.4" height="31.9"/>
				<rect x="270.9" y="314" class="st3" width="1.4" height="31.9"/>
				<rect x="278.1" y="314" class="st3" width="1.4" height="31.9"/>
				<rect x="285.2" y="314" class="st3" width="1.4" height="31.9"/>
				<rect x="292.3" y="314" class="st3" width="1.4" height="31.9"/>
				<rect x="299.4" y="314" class="st3" width="1.4" height="31.9"/>
				<rect x="313.7" y="314" class="st3" width="1.4" height="31.9"/>
				<rect x="335.1" y="314" class="st3" width="1.4" height="31.9"/>
				<rect x="320.8" y="314" class="st3" width="1.4" height="31.9"/>
				<rect x="327.9" y="314" class="st3" width="1.4" height="31.9"/>
				<rect x="342.2" y="314" class="st3" width="1.4" height="31.9"/>
				<rect x="349.3" y="314" class="st3" width="1.4" height="31.9"/>
				<rect x="356.4" y="314" class="st3" width="1.4" height="31.9"/>
				<rect x="363.6" y="314" class="st3" width="1.4" height="31.9"/>
				<rect x="370.7" y="314" class="st3" width="1.4" height="31.9"/>
				<rect x="384.9" y="314" class="st3" width="1.4" height="31.9"/>
				<rect x="399.2" y="314" class="st3" width="1.4" height="31.9"/>
				<rect x="377.8" y="314" class="st3" width="1.4" height="31.9"/>
				<rect x="392.1" y="314" class="st3" width="1.4" height="31.9"/>
				<rect x="406.3" y="314" class="st3" width="1.4" height="31.9"/>
				<rect x="413.5" y="314" class="st3" width="1.4" height="31.9"/>
				<rect x="420.6" y="314" class="st3" width="1.4" height="31.9"/>
				<rect x="427.7" y="314" class="st3" width="1.4" height="31.9"/>
				<rect x="434.8" y="314" class="st3" width="1.4" height="31.9"/>
			</g>
		</g>
	</g>
	<g>
		<ellipse class="st4" cx="323" cy="126.4" rx="64.5" ry="64.2"/>
		<g>
			<path class="st3" d="M351.7,146.1l2.6-7.9l0.3-0.6c0,0,9.4-3.4,12.2-8.7c2.8-5.3-4.6-10.1-4.6-10.1s-8.3-6.7-28.8-8.6
				s-34.1,2-38.7,3.6l2.1-8.2c0,0,17.3-5.1,39.8-2.3c22.5,2.7,30.4,10.2,30.4,10.2s9.1,5.9,7.4,15s-12.7,13.8-12.7,13.8
				S356.3,145.3,351.7,146.1z"/>
			<path class="st3" d="M347,147.4l-7.2-5.9c0,0-12.2,2.3-27.9,0.8c-15.7-1.6-23.6-5.9-23.6-5.9s-10.8-4.6-9.7-11.3
				c0,0,0.4-2.5,4.1-5.4c3.7-2.9,7.3-4.1,7.3-4.1l-6.5-4.8c0,0-5.8,2.7-9.6,7.9c-3.8,5.2-1.9,11.4-1.9,11.4s2,10.1,21,15.8
				c19,5.7,36.1,4,36.1,4S338.5,149.4,347,147.4z"/>
		</g>
	</g>
</g>
</svg>
